<?xml version="1.0" encoding="utf-8"?>
<!-- Generator: Adobe Illustrator 16.0.0, SVG Export Plug-In . SVG Version: 6.00 Build 0)  -->
<!DOCTYPE svg PUBLIC "-//W3C//DTD SVG 1.1//EN" "http://www.w3.org/Graphics/SVG/1.1/DTD/svg11.dtd">
<svg version="1.1" xmlns="http://www.w3.org/2000/svg" xmlns:xlink="http://www.w3.org/1999/xlink" x="0px" y="0px"
	 width="104.994px" height="27.564px" viewBox="0 0 104.994 27.564" enable-background="new 0 0 104.994 27.564"
	 xml:space="preserve">
<g id="Layer_1">
	<g>
		<g>
			<path fill="#244963" d="M28.66,6.732h2.514v2.795c0.75-1.102,1.541-1.925,2.373-2.47s1.699-0.817,2.602-0.817
				c0.68,0,1.406,0.217,2.18,0.65l-1.283,2.074c-0.516-0.223-0.949-0.334-1.301-0.334c-0.82,0-1.611,0.337-2.373,1.011
				s-1.342,1.72-1.74,3.138c-0.305,1.09-0.457,3.293-0.457,6.609v7.048H28.66V6.732z"/>
			<path fill="#244963" d="M56.736,10.705l-1.951,1.213C53.1,9.68,50.8,8.561,47.885,8.561c-2.329,0-4.263,0.749-5.803,2.248
				c-1.539,1.498-2.309,3.318-2.309,5.46c0,1.393,0.354,2.704,1.062,3.933s1.68,2.183,2.915,2.862
				c1.235,0.679,2.619,1.019,4.152,1.019c2.81,0,5.104-1.119,6.883-3.357l1.951,1.283c-0.914,1.376-2.142,2.444-3.683,3.203
				c-1.541,0.759-3.296,1.139-5.265,1.139c-3.023,0-5.531-0.961-7.523-2.883s-2.988-4.26-2.988-7.014
				c0-1.852,0.466-3.571,1.397-5.159s2.212-2.827,3.841-3.718s3.451-1.336,5.467-1.336c1.266,0,2.487,0.193,3.665,0.58
				s2.177,0.891,2.997,1.512S56.162,9.744,56.736,10.705z"/>
			<path fill="#A84424" d="M53.303,2.531V0H67.47v2.531h-5.765v23.326h-2.637V2.531H53.303z"/>
			<path fill="#A84424" d="M81.136,19.512l2.074,1.09c-0.68,1.336-1.465,2.414-2.357,3.234c-0.891,0.82-1.895,1.444-3.008,1.872
				c-1.115,0.428-2.377,0.642-3.783,0.642c-3.121,0-5.561-1.022-7.318-3.067c-1.76-2.045-2.641-4.356-2.641-6.935
				c0-2.426,0.744-4.588,2.234-6.486c1.889-2.414,4.416-3.621,7.584-3.621c3.26,0,5.863,1.236,7.811,3.709
				c1.385,1.746,2.088,3.926,2.111,6.539H66.634c0.047,2.222,0.758,4.042,2.131,5.463c1.371,1.42,3.066,2.131,5.086,2.131
				c0.973,0,1.92-0.169,2.842-0.508c0.92-0.338,1.703-0.788,2.35-1.348C79.687,21.666,80.386,20.761,81.136,19.512z M81.136,14.361
				c-0.328-1.312-0.807-2.361-1.434-3.146c-0.629-0.785-1.459-1.418-2.49-1.898c-1.033-0.48-2.119-0.721-3.256-0.721
				c-1.879,0-3.492,0.604-4.84,1.811c-0.986,0.879-1.732,2.197-2.236,3.955H81.136z"/>
			<path fill="#A84424" d="M104.994,10.705l-1.951,1.213c-1.686-2.238-3.984-3.357-6.9-3.357c-2.328,0-4.264,0.749-5.803,2.248
				c-1.539,1.498-2.309,3.318-2.309,5.46c0,1.393,0.355,2.704,1.062,3.933c0.709,1.229,1.68,2.183,2.914,2.862
				c1.236,0.679,2.619,1.019,4.152,1.019c2.811,0,5.104-1.119,6.883-3.357l1.951,1.283c-0.914,1.376-2.141,2.444-3.682,3.203
				c-1.541,0.759-3.297,1.139-5.266,1.139c-3.023,0-5.531-0.961-7.523-2.883s-2.988-4.26-2.988-7.014
				c0-1.852,0.467-3.571,1.398-5.159s2.211-2.827,3.84-3.718S94.224,6.24,96.24,6.24c1.266,0,2.488,0.193,3.666,0.58
				s2.176,0.891,2.996,1.512S104.419,9.744,104.994,10.705z"/>
		</g>
		<path fill="#244963" d="M22.117,1.437L0,26.437h3.963l7.274-8h11.465l0.156,8h2.844v-25H22.117z M22.703,15.437h-9.588l8.57-10
			h1.019V15.437z"/>
		<line fill="none" stroke="#FFFFFF" stroke-miterlimit="10" x1="3.282" y1="27.235" x2="21.684" y2="6.2"/>
	</g>
</g>
<g id="Layer_2" display="none">
	<path display="inline" d="M23.197,0.437l-22.117,25h2.883l7.274-8h11.465v8h3v-25H23.197z M22.703,15.437h-9.588l8.738-10h0.851
		V15.437z"/>
	<path display="inline" d="M23.197,0.437l-22.117,25h2.883l7.274-8h11.465v8h3v-25H23.197z M22.703,15.437h-9.588l8.738-10h0.851
		V15.437z"/>
</g>
</svg>
